<?xml version="1.0" encoding="UTF-8" standalone="no"?>
<!DOCTYPE svg PUBLIC "-//W3C//DTD SVG 1.1//EN"
 "http://www.w3.org/Graphics/SVG/1.1/DTD/svg11.dtd">
<!-- Generated by graphviz version 2.42.4 (0)
 -->
<!-- Title: G Pages: 1 -->
<svg width="549pt" height="740pt"
 viewBox="0.00 0.00 549.27 740.00" xmlns="http://www.w3.org/2000/svg" xmlns:xlink="http://www.w3.org/1999/xlink">
<g id="graph0" class="graph" transform="scale(1 1) rotate(0) translate(4 736)">
<title>G</title>
<polygon fill="white" stroke="transparent" points="-4,4 -4,-736 545.27,-736 545.27,4 -4,4"/>
<g id="clust1" class="cluster">
<title>cluster_input</title>
<polygon fill="none" stroke="black" points="8,-196 8,-535 112.39,-535 112.39,-196 8,-196"/>
<text text-anchor="middle" x="60.2" y="-519.8" font-family="Times,serif" font-size="14.00">Input Layer</text>
</g>
<g id="clust2" class="cluster">
<title>cluster_hidden1</title>
<polygon fill="none" stroke="black" points="132.39,-8 132.39,-724 259.29,-724 259.29,-8 132.39,-8"/>
<text text-anchor="middle" x="195.84" y="-708.8" font-family="Times,serif" font-size="14.00">Hidden Layer 1</text>
</g>
<g id="clust3" class="cluster">
<title>cluster_hidden2</title>
<polygon fill="none" stroke="black" points="279.29,-8 279.29,-724 406.18,-724 406.18,-8 279.29,-8"/>
<text text-anchor="middle" x="342.73" y="-708.8" font-family="Times,serif" font-size="14.00">Hidden Layer 2</text>
</g>
<g id="clust4" class="cluster">
<title>cluster_output</title>
<polygon fill="none" stroke="black" points="426.18,-302 426.18,-429 537.27,-429 537.27,-302 426.18,-302"/>
<text text-anchor="middle" x="481.73" y="-413.8" font-family="Times,serif" font-size="14.00">Output Layer</text>
</g>
<!-- i1 -->
<g id="node1" class="node">
<title>i1</title>
<ellipse fill="none" stroke="black" cx="60.2" cy="-354" rx="44.39" ry="44.39"/>
<text text-anchor="middle" x="60.2" y="-350.3" font-family="Times,serif" font-size="14.00">Input 1</text>
</g>
<!-- h1_1 -->
<g id="node4" class="node">
<title>h1_1</title>
<ellipse fill="none" stroke="black" cx="195.84" cy="-659" rx="34.39" ry="34.39"/>
<text text-anchor="middle" x="195.84" y="-655.3" font-family="Times,serif" font-size="14.00">H1_1</text>
</g>
<!-- i1&#45;&gt;h1_1 -->
<g id="edge1" class="edge">
<title>i1&#45;&gt;h1_1</title>
<path fill="none" stroke="black" d="M78.8,-394.19C104.32,-452.41 151.31,-559.66 176.97,-618.22"/>
<polygon fill="black" stroke="black" points="173.83,-619.77 181.05,-627.53 180.24,-616.96 173.83,-619.77"/>
</g>
<!-- h1_2 -->
<g id="node5" class="node">
<title>h1_2</title>
<ellipse fill="none" stroke="black" cx="195.84" cy="-572" rx="34.39" ry="34.39"/>
<text text-anchor="middle" x="195.84" y="-568.3" font-family="Times,serif" font-size="14.00">H1_2</text>
</g>
<!-- i1&#45;&gt;h1_2 -->
<g id="edge2" class="edge">
<title>i1&#45;&gt;h1_2</title>
<path fill="none" stroke="black" d="M84.17,-391.48C108.66,-431.43 147.22,-494.33 171.76,-534.35"/>
<polygon fill="black" stroke="black" points="168.86,-536.32 177.07,-543.02 174.83,-532.66 168.86,-536.32"/>
</g>
<!-- h1_3 -->
<g id="node6" class="node">
<title>h1_3</title>
<ellipse fill="none" stroke="black" cx="195.84" cy="-485" rx="34.39" ry="34.39"/>
<text text-anchor="middle" x="195.84" y="-481.3" font-family="Times,serif" font-size="14.00">H1_3</text>
</g>
<!-- i1&#45;&gt;h1_3 -->
<g id="edge3" class="edge">
<title>i1&#45;&gt;h1_3</title>
<path fill="none" stroke="black" d="M92.53,-384.71C113.79,-405.55 141.79,-433 163.13,-453.91"/>
<polygon fill="black" stroke="black" points="160.78,-456.52 170.37,-461.02 165.68,-451.52 160.78,-456.52"/>
</g>
<!-- h1_4 -->
<g id="node7" class="node">
<title>h1_4</title>
<ellipse fill="none" stroke="black" cx="195.84" cy="-398" rx="34.39" ry="34.39"/>
<text text-anchor="middle" x="195.84" y="-394.3" font-family="Times,serif" font-size="14.00">H1_4</text>
</g>
<!-- i1&#45;&gt;h1_4 -->
<g id="edge4" class="edge">
<title>i1&#45;&gt;h1_4</title>
<path fill="none" stroke="black" d="M102.38,-367.56C118.52,-372.87 137,-378.96 153.18,-384.28"/>
<polygon fill="black" stroke="black" points="152.32,-387.68 162.91,-387.49 154.51,-381.04 152.32,-387.68"/>
</g>
<!-- h1_5 -->
<g id="node8" class="node">
<title>h1_5</title>
<ellipse fill="none" stroke="black" cx="195.84" cy="-311" rx="34.39" ry="34.39"/>
<text text-anchor="middle" x="195.84" y="-307.3" font-family="Times,serif" font-size="14.00">H1_5</text>
</g>
<!-- i1&#45;&gt;h1_5 -->
<g id="edge5" class="edge">
<title>i1&#45;&gt;h1_5</title>
<path fill="none" stroke="black" d="M102.38,-340.75C118.52,-335.56 137,-329.61 153.18,-324.41"/>
<polygon fill="black" stroke="black" points="154.46,-327.67 162.91,-321.27 152.32,-321 154.46,-327.67"/>
</g>
<!-- h1_6 -->
<g id="node9" class="node">
<title>h1_6</title>
<ellipse fill="none" stroke="black" cx="195.84" cy="-224" rx="34.39" ry="34.39"/>
<text text-anchor="middle" x="195.84" y="-220.3" font-family="Times,serif" font-size="14.00">H1_6</text>
</g>
<!-- i1&#45;&gt;h1_6 -->
<g id="edge6" class="edge">
<title>i1&#45;&gt;h1_6</title>
<path fill="none" stroke="black" d="M92.53,-323.52C113.79,-302.84 141.79,-275.6 163.13,-254.85"/>
<polygon fill="black" stroke="black" points="165.65,-257.28 170.37,-247.8 160.76,-252.26 165.65,-257.28"/>
</g>
<!-- h1_7 -->
<g id="node10" class="node">
<title>h1_7</title>
<ellipse fill="none" stroke="black" cx="195.84" cy="-137" rx="34.39" ry="34.39"/>
<text text-anchor="middle" x="195.84" y="-133.3" font-family="Times,serif" font-size="14.00">H1_7</text>
</g>
<!-- i1&#45;&gt;h1_7 -->
<g id="edge7" class="edge">
<title>i1&#45;&gt;h1_7</title>
<path fill="none" stroke="black" d="M84.17,-316.7C108.59,-277.04 147.01,-214.67 171.55,-174.82"/>
<polygon fill="black" stroke="black" points="174.6,-176.53 176.87,-166.18 168.64,-172.86 174.6,-176.53"/>
</g>
<!-- h1_8 -->
<g id="node11" class="node">
<title>h1_8</title>
<ellipse fill="none" stroke="black" cx="195.84" cy="-50" rx="34.39" ry="34.39"/>
<text text-anchor="middle" x="195.84" y="-46.3" font-family="Times,serif" font-size="14.00">H1_8</text>
</g>
<!-- i1&#45;&gt;h1_8 -->
<g id="edge8" class="edge">
<title>i1&#45;&gt;h1_8</title>
<path fill="none" stroke="black" d="M78.94,-313.63C104.5,-255.49 151.41,-148.8 177.01,-90.55"/>
<polygon fill="black" stroke="black" points="180.26,-91.86 181.08,-81.3 173.85,-89.04 180.26,-91.86"/>
</g>
<!-- i2 -->
<g id="node2" class="node">
<title>i2</title>
<ellipse fill="none" stroke="black" cx="60.2" cy="-248" rx="44.39" ry="44.39"/>
<text text-anchor="middle" x="60.2" y="-244.3" font-family="Times,serif" font-size="14.00">Input 2</text>
</g>
<!-- i2&#45;&gt;h1_1 -->
<g id="edge9" class="edge">
<title>i2&#45;&gt;h1_1</title>
<path fill="none" stroke="black" d="M74.87,-290.05C100.48,-368.83 155.42,-537.77 181.09,-616.72"/>
<polygon fill="black" stroke="black" points="177.8,-617.91 184.22,-626.34 184.46,-615.75 177.8,-617.91"/>
</g>
<!-- i2&#45;&gt;h1_2 -->
<g id="edge10" class="edge">
<title>i2&#45;&gt;h1_2</title>
<path fill="none" stroke="black" d="M77.99,-288.71C103.61,-350.82 152.19,-468.59 177.9,-530.92"/>
<polygon fill="black" stroke="black" points="174.77,-532.52 181.82,-540.43 181.24,-529.86 174.77,-532.52"/>
</g>
<!-- i2&#45;&gt;h1_3 -->
<g id="edge11" class="edge">
<title>i2&#45;&gt;h1_3</title>
<path fill="none" stroke="black" d="M82.67,-286.08C107.52,-330.15 148.21,-402.31 173.15,-446.54"/>
<polygon fill="black" stroke="black" points="170.11,-448.28 178.07,-455.27 176.21,-444.84 170.11,-448.28"/>
</g>
<!-- i2&#45;&gt;h1_4 -->
<g id="edge12" class="edge">
<title>i2&#45;&gt;h1_4</title>
<path fill="none" stroke="black" d="M90.19,-280.55C112.46,-305.54 143.07,-339.9 165.44,-365"/>
<polygon fill="black" stroke="black" points="162.83,-367.33 172.09,-372.47 168.05,-362.67 162.83,-367.33"/>
</g>
<!-- i2&#45;&gt;h1_5 -->
<g id="edge13" class="edge">
<title>i2&#45;&gt;h1_5</title>
<path fill="none" stroke="black" d="M100.57,-266.56C117.72,-274.65 137.79,-284.11 154.99,-292.22"/>
<polygon fill="black" stroke="black" points="153.68,-295.47 164.22,-296.57 156.67,-289.14 153.68,-295.47"/>
</g>
<!-- i2&#45;&gt;h1_6 -->
<g id="edge14" class="edge">
<title>i2&#45;&gt;h1_6</title>
<path fill="none" stroke="black" d="M103.85,-240.34C119.12,-237.6 136.33,-234.51 151.65,-231.76"/>
<polygon fill="black" stroke="black" points="152.67,-235.13 161.9,-229.92 151.43,-228.24 152.67,-235.13"/>
</g>
<!-- i2&#45;&gt;h1_7 -->
<g id="edge15" class="edge">
<title>i2&#45;&gt;h1_7</title>
<path fill="none" stroke="black" d="M94.92,-219.99C115.13,-203.21 140.73,-181.94 160.97,-165.13"/>
<polygon fill="black" stroke="black" points="163.26,-167.78 168.71,-158.7 158.79,-162.4 163.26,-167.78"/>
</g>
<!-- i2&#45;&gt;h1_8 -->
<g id="edge16" class="edge">
<title>i2&#45;&gt;h1_8</title>
<path fill="none" stroke="black" d="M85.71,-211.68C109.67,-176.18 145.98,-122.39 170.04,-86.74"/>
<polygon fill="black" stroke="black" points="173.19,-88.34 175.88,-78.09 167.38,-84.42 173.19,-88.34"/>
</g>
<!-- i3 -->
<g id="node3" class="node">
<title>i3</title>
<ellipse fill="none" stroke="black" cx="60.2" cy="-460" rx="44.39" ry="44.39"/>
<text text-anchor="middle" x="60.2" y="-456.3" font-family="Times,serif" font-size="14.00">Input 3</text>
</g>
<!-- i3&#45;&gt;h1_1 -->
<g id="edge17" class="edge">
<title>i3&#45;&gt;h1_1</title>
<path fill="none" stroke="black" d="M85.71,-496.5C109.67,-532.19 145.98,-586.24 170.04,-622.07"/>
<polygon fill="black" stroke="black" points="167.4,-624.42 175.88,-630.77 173.21,-620.52 167.4,-624.42"/>
</g>
<!-- i3&#45;&gt;h1_2 -->
<g id="edge18" class="edge">
<title>i3&#45;&gt;h1_2</title>
<path fill="none" stroke="black" d="M94.58,-487.97C114.91,-505.02 140.82,-526.73 161.21,-543.82"/>
<polygon fill="black" stroke="black" points="159.1,-546.61 169.01,-550.35 163.59,-541.25 159.1,-546.61"/>
</g>
<!-- i3&#45;&gt;h1_3 -->
<g id="edge19" class="edge">
<title>i3&#45;&gt;h1_3</title>
<path fill="none" stroke="black" d="M103.85,-467.98C119.12,-470.84 136.33,-474.06 151.65,-476.92"/>
<polygon fill="black" stroke="black" points="151.42,-480.44 161.9,-478.84 152.71,-473.56 151.42,-480.44"/>
</g>
<!-- i3&#45;&gt;h1_4 -->
<g id="edge20" class="edge">
<title>i3&#45;&gt;h1_4</title>
<path fill="none" stroke="black" d="M100.57,-441.73C117.72,-433.78 137.79,-424.47 154.99,-416.48"/>
<polygon fill="black" stroke="black" points="156.62,-419.59 164.22,-412.2 153.68,-413.24 156.62,-419.59"/>
</g>
<!-- i3&#45;&gt;h1_5 -->
<g id="edge21" class="edge">
<title>i3&#45;&gt;h1_5</title>
<path fill="none" stroke="black" d="M90.52,-427.3C112.71,-402.57 143.05,-368.74 165.29,-343.94"/>
<polygon fill="black" stroke="black" points="168.13,-346.01 172.21,-336.23 162.92,-341.34 168.13,-346.01"/>
</g>
<!-- i3&#45;&gt;h1_6 -->
<g id="edge22" class="edge">
<title>i3&#45;&gt;h1_6</title>
<path fill="none" stroke="black" d="M82.82,-421.82C107.58,-378.1 147.92,-306.85 172.84,-262.85"/>
<polygon fill="black" stroke="black" points="176.03,-264.32 177.91,-253.89 169.94,-260.87 176.03,-264.32"/>
</g>
<!-- i3&#45;&gt;h1_7 -->
<g id="edge23" class="edge">
<title>i3&#45;&gt;h1_7</title>
<path fill="none" stroke="black" d="M77.99,-419.42C103.61,-357.5 152.19,-240.09 177.9,-177.95"/>
<polygon fill="black" stroke="black" points="181.23,-179.05 181.82,-168.47 174.76,-176.37 181.23,-179.05"/>
</g>
<!-- i3&#45;&gt;h1_8 -->
<g id="edge24" class="edge">
<title>i3&#45;&gt;h1_8</title>
<path fill="none" stroke="black" d="M74.87,-418.05C100.48,-339.47 155.42,-170.93 181.09,-92.18"/>
<polygon fill="black" stroke="black" points="184.45,-93.17 184.22,-82.58 177.79,-91 184.45,-93.17"/>
</g>
<!-- h2_1 -->
<g id="node12" class="node">
<title>h2_1</title>
<ellipse fill="none" stroke="black" cx="342.73" cy="-659" rx="34.39" ry="34.39"/>
<text text-anchor="middle" x="342.73" y="-655.3" font-family="Times,serif" font-size="14.00">H2_1</text>
</g>
<!-- h1_1&#45;&gt;h2_1 -->
<g id="edge25" class="edge">
<title>h1_1&#45;&gt;h2_1</title>
<path fill="none" stroke="black" d="M230.44,-659C250.49,-659 276.17,-659 297.8,-659"/>
<polygon fill="black" stroke="black" points="298.06,-662.5 308.06,-659 298.06,-655.5 298.06,-662.5"/>
</g>
<!-- h2_2 -->
<g id="node13" class="node">
<title>h2_2</title>
<ellipse fill="none" stroke="black" cx="342.73" cy="-572" rx="34.39" ry="34.39"/>
<text text-anchor="middle" x="342.73" y="-568.3" font-family="Times,serif" font-size="14.00">H2_2</text>
</g>
<!-- h1_1&#45;&gt;h2_2 -->
<g id="edge26" class="edge">
<title>h1_1&#45;&gt;h2_2</title>
<path fill="none" stroke="black" d="M225.81,-641.6C248.32,-628.09 279.71,-609.24 304.15,-594.57"/>
<polygon fill="black" stroke="black" points="306.04,-597.51 312.81,-589.37 302.44,-591.51 306.04,-597.51"/>
</g>
<!-- h2_3 -->
<g id="node14" class="node">
<title>h2_3</title>
<ellipse fill="none" stroke="black" cx="342.73" cy="-485" rx="34.39" ry="34.39"/>
<text text-anchor="middle" x="342.73" y="-481.3" font-family="Times,serif" font-size="14.00">H2_3</text>
</g>
<!-- h1_1&#45;&gt;h2_3 -->
<g id="edge27" class="edge">
<title>h1_1&#45;&gt;h2_3</title>
<path fill="none" stroke="black" d="M218.53,-632.95C243.82,-602.58 285.69,-552.3 313.49,-518.91"/>
<polygon fill="black" stroke="black" points="316.18,-521.15 319.89,-511.23 310.8,-516.67 316.18,-521.15"/>
</g>
<!-- h2_4 -->
<g id="node15" class="node">
<title>h2_4</title>
<ellipse fill="none" stroke="black" cx="342.73" cy="-398" rx="34.39" ry="34.39"/>
<text text-anchor="middle" x="342.73" y="-394.3" font-family="Times,serif" font-size="14.00">H2_4</text>
</g>
<!-- h1_1&#45;&gt;h2_4 -->
<g id="edge28" class="edge">
<title>h1_1&#45;&gt;h2_4</title>
<path fill="none" stroke="black" d="M213.32,-629.31C239.56,-582.05 290.84,-489.67 320.04,-437.08"/>
<polygon fill="black" stroke="black" points="323.25,-438.5 325.05,-428.06 317.13,-435.1 323.25,-438.5"/>
</g>
<!-- h2_5 -->
<g id="node16" class="node">
<title>h2_5</title>
<ellipse fill="none" stroke="black" cx="342.73" cy="-311" rx="34.39" ry="34.39"/>
<text text-anchor="middle" x="342.73" y="-307.3" font-family="Times,serif" font-size="14.00">H2_5</text>
</g>
<!-- h1_1&#45;&gt;h2_5 -->
<g id="edge29" class="edge">
<title>h1_1&#45;&gt;h2_5</title>
<path fill="none" stroke="black" d="M209.95,-627.5C236.23,-564.38 295.33,-422.45 324.62,-352.11"/>
<polygon fill="black" stroke="black" points="327.93,-353.25 328.54,-342.68 321.47,-350.56 327.93,-353.25"/>
</g>
<!-- h2_6 -->
<g id="node17" class="node">
<title>h2_6</title>
<ellipse fill="none" stroke="black" cx="342.73" cy="-224" rx="34.39" ry="34.39"/>
<text text-anchor="middle" x="342.73" y="-220.3" font-family="Times,serif" font-size="14.00">H2_6</text>
</g>
<!-- h1_1&#45;&gt;h2_6 -->
<g id="edge30" class="edge">
<title>h1_1&#45;&gt;h2_6</title>
<path fill="none" stroke="black" d="M207.73,-626.3C233.62,-548.57 298.84,-352.76 327.67,-266.23"/>
<polygon fill="black" stroke="black" points="331.07,-267.08 330.91,-256.48 324.43,-264.86 331.07,-267.08"/>
</g>
<!-- h2_7 -->
<g id="node18" class="node">
<title>h2_7</title>
<ellipse fill="none" stroke="black" cx="342.73" cy="-137" rx="34.39" ry="34.39"/>
<text text-anchor="middle" x="342.73" y="-133.3" font-family="Times,serif" font-size="14.00">H2_7</text>
</g>
<!-- h1_1&#45;&gt;h2_7 -->
<g id="edge31" class="edge">
<title>h1_1&#45;&gt;h2_7</title>
<path fill="none" stroke="black" d="M206.01,-625.95C231.21,-535.16 301.49,-281.96 329.75,-180.18"/>
<polygon fill="black" stroke="black" points="333.2,-180.81 332.51,-170.24 326.46,-178.94 333.2,-180.81"/>
</g>
<!-- h2_8 -->
<g id="node19" class="node">
<title>h2_8</title>
<ellipse fill="none" stroke="black" cx="342.73" cy="-50" rx="34.39" ry="34.39"/>
<text text-anchor="middle" x="342.73" y="-46.3" font-family="Times,serif" font-size="14.00">H2_8</text>
</g>
<!-- h1_1&#45;&gt;h2_8 -->
<g id="edge32" class="edge">
<title>h1_1&#45;&gt;h2_8</title>
<path fill="none" stroke="black" d="M204.84,-625.39C229.43,-522.03 303.92,-208.93 331.4,-93.41"/>
<polygon fill="black" stroke="black" points="334.85,-94.04 333.76,-83.51 328.04,-92.42 334.85,-94.04"/>
</g>
<!-- h1_2&#45;&gt;h2_1 -->
<g id="edge33" class="edge">
<title>h1_2&#45;&gt;h2_1</title>
<path fill="none" stroke="black" d="M225.81,-589.4C248.32,-602.91 279.71,-621.76 304.15,-636.43"/>
<polygon fill="black" stroke="black" points="302.44,-639.49 312.81,-641.63 306.04,-633.49 302.44,-639.49"/>
</g>
<!-- h1_2&#45;&gt;h2_2 -->
<g id="edge34" class="edge">
<title>h1_2&#45;&gt;h2_2</title>
<path fill="none" stroke="black" d="M230.44,-572C250.49,-572 276.17,-572 297.8,-572"/>
<polygon fill="black" stroke="black" points="298.06,-575.5 308.06,-572 298.06,-568.5 298.06,-575.5"/>
</g>
<!-- h1_2&#45;&gt;h2_3 -->
<g id="edge35" class="edge">
<title>h1_2&#45;&gt;h2_3</title>
<path fill="none" stroke="black" d="M225.81,-554.6C248.32,-541.09 279.71,-522.24 304.15,-507.57"/>
<polygon fill="black" stroke="black" points="306.04,-510.51 312.81,-502.37 302.44,-504.51 306.04,-510.51"/>
</g>
<!-- h1_2&#45;&gt;h2_4 -->
<g id="edge36" class="edge">
<title>h1_2&#45;&gt;h2_4</title>
<path fill="none" stroke="black" d="M218.53,-545.95C243.82,-515.58 285.69,-465.3 313.49,-431.91"/>
<polygon fill="black" stroke="black" points="316.18,-434.15 319.89,-424.23 310.8,-429.67 316.18,-434.15"/>
</g>
<!-- h1_2&#45;&gt;h2_5 -->
<g id="edge37" class="edge">
<title>h1_2&#45;&gt;h2_5</title>
<path fill="none" stroke="black" d="M213.32,-542.31C239.56,-495.05 290.84,-402.67 320.04,-350.08"/>
<polygon fill="black" stroke="black" points="323.25,-351.5 325.05,-341.06 317.13,-348.1 323.25,-351.5"/>
</g>
<!-- h1_2&#45;&gt;h2_6 -->
<g id="edge38" class="edge">
<title>h1_2&#45;&gt;h2_6</title>
<path fill="none" stroke="black" d="M209.95,-540.5C236.23,-477.38 295.33,-335.45 324.62,-265.11"/>
<polygon fill="black" stroke="black" points="327.93,-266.25 328.54,-255.68 321.47,-263.56 327.93,-266.25"/>
</g>
<!-- h1_2&#45;&gt;h2_7 -->
<g id="edge39" class="edge">
<title>h1_2&#45;&gt;h2_7</title>
<path fill="none" stroke="black" d="M207.73,-539.3C233.62,-461.57 298.84,-265.76 327.67,-179.23"/>
<polygon fill="black" stroke="black" points="331.07,-180.08 330.91,-169.48 324.43,-177.86 331.07,-180.08"/>
</g>
<!-- h1_2&#45;&gt;h2_8 -->
<g id="edge40" class="edge">
<title>h1_2&#45;&gt;h2_8</title>
<path fill="none" stroke="black" d="M206.01,-538.95C231.21,-448.16 301.49,-194.96 329.75,-93.18"/>
<polygon fill="black" stroke="black" points="333.2,-93.81 332.51,-83.24 326.46,-91.94 333.2,-93.81"/>
</g>
<!-- h1_3&#45;&gt;h2_1 -->
<g id="edge41" class="edge">
<title>h1_3&#45;&gt;h2_1</title>
<path fill="none" stroke="black" d="M218.53,-511.05C243.82,-541.42 285.69,-591.7 313.49,-625.09"/>
<polygon fill="black" stroke="black" points="310.8,-627.33 319.89,-632.77 316.18,-622.85 310.8,-627.33"/>
</g>
<!-- h1_3&#45;&gt;h2_2 -->
<g id="edge42" class="edge">
<title>h1_3&#45;&gt;h2_2</title>
<path fill="none" stroke="black" d="M225.81,-502.4C248.32,-515.91 279.71,-534.76 304.15,-549.43"/>
<polygon fill="black" stroke="black" points="302.44,-552.49 312.81,-554.63 306.04,-546.49 302.44,-552.49"/>
</g>
<!-- h1_3&#45;&gt;h2_3 -->
<g id="edge43" class="edge">
<title>h1_3&#45;&gt;h2_3</title>
<path fill="none" stroke="black" d="M230.44,-485C250.49,-485 276.17,-485 297.8,-485"/>
<polygon fill="black" stroke="black" points="298.06,-488.5 308.06,-485 298.06,-481.5 298.06,-488.5"/>
</g>
<!-- h1_3&#45;&gt;h2_4 -->
<g id="edge44" class="edge">
<title>h1_3&#45;&gt;h2_4</title>
<path fill="none" stroke="black" d="M225.81,-467.6C248.32,-454.09 279.71,-435.24 304.15,-420.57"/>
<polygon fill="black" stroke="black" points="306.04,-423.51 312.81,-415.37 302.44,-417.51 306.04,-423.51"/>
</g>
<!-- h1_3&#45;&gt;h2_5 -->
<g id="edge45" class="edge">
<title>h1_3&#45;&gt;h2_5</title>
<path fill="none" stroke="black" d="M218.53,-458.95C243.82,-428.58 285.69,-378.3 313.49,-344.91"/>
<polygon fill="black" stroke="black" points="316.18,-347.15 319.89,-337.23 310.8,-342.67 316.18,-347.15"/>
</g>
<!-- h1_3&#45;&gt;h2_6 -->
<g id="edge46" class="edge">
<title>h1_3&#45;&gt;h2_6</title>
<path fill="none" stroke="black" d="M213.32,-455.31C239.56,-408.05 290.84,-315.67 320.04,-263.08"/>
<polygon fill="black" stroke="black" points="323.25,-264.5 325.05,-254.06 317.13,-261.1 323.25,-264.5"/>
</g>
<!-- h1_3&#45;&gt;h2_7 -->
<g id="edge47" class="edge">
<title>h1_3&#45;&gt;h2_7</title>
<path fill="none" stroke="black" d="M209.95,-453.5C236.23,-390.38 295.33,-248.45 324.62,-178.11"/>
<polygon fill="black" stroke="black" points="327.93,-179.25 328.54,-168.68 321.47,-176.56 327.93,-179.25"/>
</g>
<!-- h1_3&#45;&gt;h2_8 -->
<g id="edge48" class="edge">
<title>h1_3&#45;&gt;h2_8</title>
<path fill="none" stroke="black" d="M207.73,-452.3C233.62,-374.57 298.84,-178.76 327.67,-92.23"/>
<polygon fill="black" stroke="black" points="331.07,-93.08 330.91,-82.48 324.43,-90.86 331.07,-93.08"/>
</g>
<!-- h1_4&#45;&gt;h2_1 -->
<g id="edge49" class="edge">
<title>h1_4&#45;&gt;h2_1</title>
<path fill="none" stroke="black" d="M213.32,-427.69C239.56,-474.95 290.84,-567.33 320.04,-619.92"/>
<polygon fill="black" stroke="black" points="317.13,-621.9 325.05,-628.94 323.25,-618.5 317.13,-621.9"/>
</g>
<!-- h1_4&#45;&gt;h2_2 -->
<g id="edge50" class="edge">
<title>h1_4&#45;&gt;h2_2</title>
<path fill="none" stroke="black" d="M218.53,-424.05C243.82,-454.42 285.69,-504.7 313.49,-538.09"/>
<polygon fill="black" stroke="black" points="310.8,-540.33 319.89,-545.77 316.18,-535.85 310.8,-540.33"/>
</g>
<!-- h1_4&#45;&gt;h2_3 -->
<g id="edge51" class="edge">
<title>h1_4&#45;&gt;h2_3</title>
<path fill="none" stroke="black" d="M225.81,-415.4C248.32,-428.91 279.71,-447.76 304.15,-462.43"/>
<polygon fill="black" stroke="black" points="302.44,-465.49 312.81,-467.63 306.04,-459.49 302.44,-465.49"/>
</g>
<!-- h1_4&#45;&gt;h2_4 -->
<g id="edge52" class="edge">
<title>h1_4&#45;&gt;h2_4</title>
<path fill="none" stroke="black" d="M230.44,-398C250.49,-398 276.17,-398 297.8,-398"/>
<polygon fill="black" stroke="black" points="298.06,-401.5 308.06,-398 298.06,-394.5 298.06,-401.5"/>
</g>
<!-- h1_4&#45;&gt;h2_5 -->
<g id="edge53" class="edge">
<title>h1_4&#45;&gt;h2_5</title>
<path fill="none" stroke="black" d="M225.81,-380.6C248.32,-367.09 279.71,-348.24 304.15,-333.57"/>
<polygon fill="black" stroke="black" points="306.04,-336.51 312.81,-328.37 302.44,-330.51 306.04,-336.51"/>
</g>
<!-- h1_4&#45;&gt;h2_6 -->
<g id="edge54" class="edge">
<title>h1_4&#45;&gt;h2_6</title>
<path fill="none" stroke="black" d="M218.53,-371.95C243.82,-341.58 285.69,-291.3 313.49,-257.91"/>
<polygon fill="black" stroke="black" points="316.18,-260.15 319.89,-250.23 310.8,-255.67 316.18,-260.15"/>
</g>
<!-- h1_4&#45;&gt;h2_7 -->
<g id="edge55" class="edge">
<title>h1_4&#45;&gt;h2_7</title>
<path fill="none" stroke="black" d="M213.32,-368.31C239.56,-321.05 290.84,-228.67 320.04,-176.08"/>
<polygon fill="black" stroke="black" points="323.25,-177.5 325.05,-167.06 317.13,-174.1 323.25,-177.5"/>
</g>
<!-- h1_4&#45;&gt;h2_8 -->
<g id="edge56" class="edge">
<title>h1_4&#45;&gt;h2_8</title>
<path fill="none" stroke="black" d="M209.95,-366.5C236.23,-303.38 295.33,-161.45 324.62,-91.11"/>
<polygon fill="black" stroke="black" points="327.93,-92.25 328.54,-81.68 321.47,-89.56 327.93,-92.25"/>
</g>
<!-- h1_5&#45;&gt;h2_1 -->
<g id="edge57" class="edge">
<title>h1_5&#45;&gt;h2_1</title>
<path fill="none" stroke="black" d="M209.95,-342.5C236.23,-405.62 295.33,-547.55 324.62,-617.89"/>
<polygon fill="black" stroke="black" points="321.47,-619.44 328.54,-627.32 327.93,-616.75 321.47,-619.44"/>
</g>
<!-- h1_5&#45;&gt;h2_2 -->
<g id="edge58" class="edge">
<title>h1_5&#45;&gt;h2_2</title>
<path fill="none" stroke="black" d="M213.32,-340.69C239.56,-387.95 290.84,-480.33 320.04,-532.92"/>
<polygon fill="black" stroke="black" points="317.13,-534.9 325.05,-541.94 323.25,-531.5 317.13,-534.9"/>
</g>
<!-- h1_5&#45;&gt;h2_3 -->
<g id="edge59" class="edge">
<title>h1_5&#45;&gt;h2_3</title>
<path fill="none" stroke="black" d="M218.53,-337.05C243.82,-367.42 285.69,-417.7 313.49,-451.09"/>
<polygon fill="black" stroke="black" points="310.8,-453.33 319.89,-458.77 316.18,-448.85 310.8,-453.33"/>
</g>
<!-- h1_5&#45;&gt;h2_4 -->
<g id="edge60" class="edge">
<title>h1_5&#45;&gt;h2_4</title>
<path fill="none" stroke="black" d="M225.81,-328.4C248.32,-341.91 279.71,-360.76 304.15,-375.43"/>
<polygon fill="black" stroke="black" points="302.44,-378.49 312.81,-380.63 306.04,-372.49 302.44,-378.49"/>
</g>
<!-- h1_5&#45;&gt;h2_5 -->
<g id="edge61" class="edge">
<title>h1_5&#45;&gt;h2_5</title>
<path fill="none" stroke="black" d="M230.44,-311C250.49,-311 276.17,-311 297.8,-311"/>
<polygon fill="black" stroke="black" points="298.06,-314.5 308.06,-311 298.06,-307.5 298.06,-314.5"/>
</g>
<!-- h1_5&#45;&gt;h2_6 -->
<g id="edge62" class="edge">
<title>h1_5&#45;&gt;h2_6</title>
<path fill="none" stroke="black" d="M225.81,-293.6C248.32,-280.09 279.71,-261.24 304.15,-246.57"/>
<polygon fill="black" stroke="black" points="306.04,-249.51 312.81,-241.37 302.44,-243.51 306.04,-249.51"/>
</g>
<!-- h1_5&#45;&gt;h2_7 -->
<g id="edge63" class="edge">
<title>h1_5&#45;&gt;h2_7</title>
<path fill="none" stroke="black" d="M218.53,-284.95C243.82,-254.58 285.69,-204.3 313.49,-170.91"/>
<polygon fill="black" stroke="black" points="316.18,-173.15 319.89,-163.23 310.8,-168.67 316.18,-173.15"/>
</g>
<!-- h1_5&#45;&gt;h2_8 -->
<g id="edge64" class="edge">
<title>h1_5&#45;&gt;h2_8</title>
<path fill="none" stroke="black" d="M213.32,-281.31C239.56,-234.05 290.84,-141.67 320.04,-89.08"/>
<polygon fill="black" stroke="black" points="323.25,-90.5 325.05,-80.06 317.13,-87.1 323.25,-90.5"/>
</g>
<!-- h1_6&#45;&gt;h2_1 -->
<g id="edge65" class="edge">
<title>h1_6&#45;&gt;h2_1</title>
<path fill="none" stroke="black" d="M207.73,-256.7C233.62,-334.43 298.84,-530.24 327.67,-616.77"/>
<polygon fill="black" stroke="black" points="324.43,-618.14 330.91,-626.52 331.07,-615.92 324.43,-618.14"/>
</g>
<!-- h1_6&#45;&gt;h2_2 -->
<g id="edge66" class="edge">
<title>h1_6&#45;&gt;h2_2</title>
<path fill="none" stroke="black" d="M209.95,-255.5C236.23,-318.62 295.33,-460.55 324.62,-530.89"/>
<polygon fill="black" stroke="black" points="321.47,-532.44 328.54,-540.32 327.93,-529.75 321.47,-532.44"/>
</g>
<!-- h1_6&#45;&gt;h2_3 -->
<g id="edge67" class="edge">
<title>h1_6&#45;&gt;h2_3</title>
<path fill="none" stroke="black" d="M213.32,-253.69C239.56,-300.95 290.84,-393.33 320.04,-445.92"/>
<polygon fill="black" stroke="black" points="317.13,-447.9 325.05,-454.94 323.25,-444.5 317.13,-447.9"/>
</g>
<!-- h1_6&#45;&gt;h2_4 -->
<g id="edge68" class="edge">
<title>h1_6&#45;&gt;h2_4</title>
<path fill="none" stroke="black" d="M218.53,-250.05C243.82,-280.42 285.69,-330.7 313.49,-364.09"/>
<polygon fill="black" stroke="black" points="310.8,-366.33 319.89,-371.77 316.18,-361.85 310.8,-366.33"/>
</g>
<!-- h1_6&#45;&gt;h2_5 -->
<g id="edge69" class="edge">
<title>h1_6&#45;&gt;h2_5</title>
<path fill="none" stroke="black" d="M225.81,-241.4C248.32,-254.91 279.71,-273.76 304.15,-288.43"/>
<polygon fill="black" stroke="black" points="302.44,-291.49 312.81,-293.63 306.04,-285.49 302.44,-291.49"/>
</g>
<!-- h1_6&#45;&gt;h2_6 -->
<g id="edge70" class="edge">
<title>h1_6&#45;&gt;h2_6</title>
<path fill="none" stroke="black" d="M230.44,-224C250.49,-224 276.17,-224 297.8,-224"/>
<polygon fill="black" stroke="black" points="298.06,-227.5 308.06,-224 298.06,-220.5 298.06,-227.5"/>
</g>
<!-- h1_6&#45;&gt;h2_7 -->
<g id="edge71" class="edge">
<title>h1_6&#45;&gt;h2_7</title>
<path fill="none" stroke="black" d="M225.81,-206.6C248.32,-193.09 279.71,-174.24 304.15,-159.57"/>
<polygon fill="black" stroke="black" points="306.04,-162.51 312.81,-154.37 302.44,-156.51 306.04,-162.51"/>
</g>
<!-- h1_6&#45;&gt;h2_8 -->
<g id="edge72" class="edge">
<title>h1_6&#45;&gt;h2_8</title>
<path fill="none" stroke="black" d="M218.53,-197.95C243.82,-167.58 285.69,-117.3 313.49,-83.91"/>
<polygon fill="black" stroke="black" points="316.18,-86.15 319.89,-76.23 310.8,-81.67 316.18,-86.15"/>
</g>
<!-- h1_7&#45;&gt;h2_1 -->
<g id="edge73" class="edge">
<title>h1_7&#45;&gt;h2_1</title>
<path fill="none" stroke="black" d="M206.01,-170.05C231.21,-260.84 301.49,-514.04 329.75,-615.82"/>
<polygon fill="black" stroke="black" points="326.46,-617.06 332.51,-625.76 333.2,-615.19 326.46,-617.06"/>
</g>
<!-- h1_7&#45;&gt;h2_2 -->
<g id="edge74" class="edge">
<title>h1_7&#45;&gt;h2_2</title>
<path fill="none" stroke="black" d="M207.73,-169.7C233.62,-247.43 298.84,-443.24 327.67,-529.77"/>
<polygon fill="black" stroke="black" points="324.43,-531.14 330.91,-539.52 331.07,-528.92 324.43,-531.14"/>
</g>
<!-- h1_7&#45;&gt;h2_3 -->
<g id="edge75" class="edge">
<title>h1_7&#45;&gt;h2_3</title>
<path fill="none" stroke="black" d="M209.95,-168.5C236.23,-231.62 295.33,-373.55 324.62,-443.89"/>
<polygon fill="black" stroke="black" points="321.47,-445.44 328.54,-453.32 327.93,-442.75 321.47,-445.44"/>
</g>
<!-- h1_7&#45;&gt;h2_4 -->
<g id="edge76" class="edge">
<title>h1_7&#45;&gt;h2_4</title>
<path fill="none" stroke="black" d="M213.32,-166.69C239.56,-213.95 290.84,-306.33 320.04,-358.92"/>
<polygon fill="black" stroke="black" points="317.13,-360.9 325.05,-367.94 323.25,-357.5 317.13,-360.9"/>
</g>
<!-- h1_7&#45;&gt;h2_5 -->
<g id="edge77" class="edge">
<title>h1_7&#45;&gt;h2_5</title>
<path fill="none" stroke="black" d="M218.53,-163.05C243.82,-193.42 285.69,-243.7 313.49,-277.09"/>
<polygon fill="black" stroke="black" points="310.8,-279.33 319.89,-284.77 316.18,-274.85 310.8,-279.33"/>
</g>
<!-- h1_7&#45;&gt;h2_6 -->
<g id="edge78" class="edge">
<title>h1_7&#45;&gt;h2_6</title>
<path fill="none" stroke="black" d="M225.81,-154.4C248.32,-167.91 279.71,-186.76 304.15,-201.43"/>
<polygon fill="black" stroke="black" points="302.44,-204.49 312.81,-206.63 306.04,-198.49 302.44,-204.49"/>
</g>
<!-- h1_7&#45;&gt;h2_7 -->
<g id="edge79" class="edge">
<title>h1_7&#45;&gt;h2_7</title>
<path fill="none" stroke="black" d="M230.44,-137C250.49,-137 276.17,-137 297.8,-137"/>
<polygon fill="black" stroke="black" points="298.06,-140.5 308.06,-137 298.06,-133.5 298.06,-140.5"/>
</g>
<!-- h1_7&#45;&gt;h2_8 -->
<g id="edge80" class="edge">
<title>h1_7&#45;&gt;h2_8</title>
<path fill="none" stroke="black" d="M225.81,-119.6C248.32,-106.09 279.71,-87.24 304.15,-72.57"/>
<polygon fill="black" stroke="black" points="306.04,-75.51 312.81,-67.37 302.44,-69.51 306.04,-75.51"/>
</g>
<!-- h1_8&#45;&gt;h2_1 -->
<g id="edge81" class="edge">
<title>h1_8&#45;&gt;h2_1</title>
<path fill="none" stroke="black" d="M204.84,-83.61C229.43,-186.97 303.92,-500.07 331.4,-615.59"/>
<polygon fill="black" stroke="black" points="328.04,-616.58 333.76,-625.49 334.85,-614.96 328.04,-616.58"/>
</g>
<!-- h1_8&#45;&gt;h2_2 -->
<g id="edge82" class="edge">
<title>h1_8&#45;&gt;h2_2</title>
<path fill="none" stroke="black" d="M206.01,-83.05C231.21,-173.84 301.49,-427.04 329.75,-528.82"/>
<polygon fill="black" stroke="black" points="326.46,-530.06 332.51,-538.76 333.2,-528.19 326.46,-530.06"/>
</g>
<!-- h1_8&#45;&gt;h2_3 -->
<g id="edge83" class="edge">
<title>h1_8&#45;&gt;h2_3</title>
<path fill="none" stroke="black" d="M207.73,-82.7C233.62,-160.43 298.84,-356.24 327.67,-442.77"/>
<polygon fill="black" stroke="black" points="324.43,-444.14 330.91,-452.52 331.07,-441.92 324.43,-444.14"/>
</g>
<!-- h1_8&#45;&gt;h2_4 -->
<g id="edge84" class="edge">
<title>h1_8&#45;&gt;h2_4</title>
<path fill="none" stroke="black" d="M209.95,-81.5C236.23,-144.62 295.33,-286.55 324.62,-356.89"/>
<polygon fill="black" stroke="black" points="321.47,-358.44 328.54,-366.32 327.93,-355.75 321.47,-358.44"/>
</g>
<!-- h1_8&#45;&gt;h2_5 -->
<g id="edge85" class="edge">
<title>h1_8&#45;&gt;h2_5</title>
<path fill="none" stroke="black" d="M213.32,-79.69C239.56,-126.95 290.84,-219.33 320.04,-271.92"/>
<polygon fill="black" stroke="black" points="317.13,-273.9 325.05,-280.94 323.25,-270.5 317.13,-273.9"/>
</g>
<!-- h1_8&#45;&gt;h2_6 -->
<g id="edge86" class="edge">
<title>h1_8&#45;&gt;h2_6</title>
<path fill="none" stroke="black" d="M218.53,-76.05C243.82,-106.42 285.69,-156.7 313.49,-190.09"/>
<polygon fill="black" stroke="black" points="310.8,-192.33 319.89,-197.77 316.18,-187.85 310.8,-192.33"/>
</g>
<!-- h1_8&#45;&gt;h2_7 -->
<g id="edge87" class="edge">
<title>h1_8&#45;&gt;h2_7</title>
<path fill="none" stroke="black" d="M225.81,-67.4C248.32,-80.91 279.71,-99.76 304.15,-114.43"/>
<polygon fill="black" stroke="black" points="302.44,-117.49 312.81,-119.63 306.04,-111.49 302.44,-117.49"/>
</g>
<!-- h1_8&#45;&gt;h2_8 -->
<g id="edge88" class="edge">
<title>h1_8&#45;&gt;h2_8</title>
<path fill="none" stroke="black" d="M230.44,-50C250.49,-50 276.17,-50 297.8,-50"/>
<polygon fill="black" stroke="black" points="298.06,-53.5 308.06,-50 298.06,-46.5 298.06,-53.5"/>
</g>
<!-- o1 -->
<g id="node20" class="node">
<title>o1</title>
<ellipse fill="none" stroke="black" cx="481.73" cy="-354" rx="43.59" ry="43.59"/>
<text text-anchor="middle" x="481.73" y="-350.3" font-family="Times,serif" font-size="14.00">Output</text>
</g>
<!-- h2_1&#45;&gt;o1 -->
<g id="edge89" class="edge">
<title>h2_1&#45;&gt;o1</title>
<path fill="none" stroke="black" d="M357.75,-627.79C381.62,-574.65 430.33,-466.2 458.76,-402.91"/>
<polygon fill="black" stroke="black" points="462.07,-404.09 462.97,-393.53 455.68,-401.22 462.07,-404.09"/>
</g>
<!-- h2_2&#45;&gt;o1 -->
<g id="edge90" class="edge">
<title>h2_2&#45;&gt;o1</title>
<path fill="none" stroke="black" d="M361.92,-543.05C385.01,-506.32 425.08,-442.55 452.23,-399.34"/>
<polygon fill="black" stroke="black" points="455.29,-401.05 457.65,-390.72 449.37,-397.32 455.29,-401.05"/>
</g>
<!-- h2_3&#45;&gt;o1 -->
<g id="edge91" class="edge">
<title>h2_3&#45;&gt;o1</title>
<path fill="none" stroke="black" d="M368.22,-461.58C388.78,-441.92 418.51,-413.5 442.24,-390.8"/>
<polygon fill="black" stroke="black" points="444.91,-393.1 449.72,-383.65 440.07,-388.04 444.91,-393.1"/>
</g>
<!-- h2_4&#45;&gt;o1 -->
<g id="edge92" class="edge">
<title>h2_4&#45;&gt;o1</title>
<path fill="none" stroke="black" d="M375.85,-387.68C392.07,-382.47 412.13,-376.03 430.35,-370.18"/>
<polygon fill="black" stroke="black" points="431.51,-373.48 439.96,-367.09 429.37,-366.82 431.51,-373.48"/>
</g>
<!-- h2_5&#45;&gt;o1 -->
<g id="edge93" class="edge">
<title>h2_5&#45;&gt;o1</title>
<path fill="none" stroke="black" d="M375.85,-321.08C392.07,-326.17 412.13,-332.47 430.35,-338.19"/>
<polygon fill="black" stroke="black" points="429.37,-341.55 439.96,-341.2 431.47,-334.87 429.37,-341.55"/>
</g>
<!-- h2_6&#45;&gt;o1 -->
<g id="edge94" class="edge">
<title>h2_6&#45;&gt;o1</title>
<path fill="none" stroke="black" d="M368.22,-247.24C388.71,-266.68 418.3,-294.77 442,-317.25"/>
<polygon fill="black" stroke="black" points="439.8,-319.99 449.46,-324.33 444.62,-314.91 439.8,-319.99"/>
</g>
<!-- h2_7&#45;&gt;o1 -->
<g id="edge95" class="edge">
<title>h2_7&#45;&gt;o1</title>
<path fill="none" stroke="black" d="M361.92,-165.82C385.01,-202.38 425.08,-265.85 452.23,-308.87"/>
<polygon fill="black" stroke="black" points="449.35,-310.86 457.65,-317.45 455.27,-307.13 449.35,-310.86"/>
</g>
<!-- h2_8&#45;&gt;o1 -->
<g id="edge96" class="edge">
<title>h2_8&#45;&gt;o1</title>
<path fill="none" stroke="black" d="M357.75,-81.1C381.62,-134.07 430.33,-242.16 458.76,-305.25"/>
<polygon fill="black" stroke="black" points="455.67,-306.92 462.97,-314.6 462.05,-304.04 455.67,-306.92"/>
</g>
</g>
</svg>
